<svg width="18" height="18" viewBox="0 0 18 18" fill="none" xmlns="http://www.w3.org/2000/svg">
<path d="M15.807 10.6314L7.36953 2.19385C5.96328 0.731354 3.65703 0.731353 2.19453 2.1376C0.732031 3.54385 0.732031 5.90635 2.19453 7.3126L2.25078 7.36885L3.82578 9.0001L4.61328 8.2126L2.98203 6.58135C2.02578 5.6251 2.02578 3.99385 2.98203 3.0376C3.93828 2.08135 5.56953 2.0251 6.52578 2.98135C6.52578 2.98135 6.52578 2.98135 6.58203 3.0376L14.9633 11.4189C15.9758 12.3751 15.9758 14.0064 15.0195 14.9626C14.0633 15.9751 12.432 15.9751 11.4758 15.0189C11.4758 15.0189 11.4758 15.0189 11.4195 14.9626L7.25703 10.8001C6.69453 10.2376 6.75078 9.3376 7.25703 8.83135C7.81953 8.3251 8.66328 8.3251 9.22578 8.83135L11.532 11.1376L12.3195 10.3501L9.95703 7.9876C8.94453 7.03135 7.36953 7.0876 6.41328 8.1001C5.51328 9.05635 5.51328 10.5751 6.41328 11.5876L10.632 15.8064C12.0383 17.2689 14.3445 17.2689 15.807 15.8626C17.2695 14.4564 17.2695 12.0939 15.807 10.6314C15.807 10.6876 15.807 10.6314 15.807 10.6314Z" fill="#CEE2EB"/>
</svg>
