<svg width="48" height="48" viewBox="0 0 48 48" fill="none" xmlns="http://www.w3.org/2000/svg">
<path d="M25.6952 5.505C24.7577 4.5675 23.2352 4.5675 22.2977 5.505L12.6977 15.105C11.7602 16.0425 11.7602 17.565 12.6977 18.5025C13.6352 19.44 15.1577 19.44 16.0952 18.5025L21.6002 12.9975V28.8C21.6002 30.1275 22.6727 31.2 24.0002 31.2C25.3277 31.2 26.4002 30.1275 26.4002 28.8V12.9975L31.9052 18.5025C32.8427 19.44 34.3652 19.44 35.3027 18.5025C36.2402 17.565 36.2402 16.0425 35.3027 15.105L25.7027 5.505H25.6952ZM12.0002 31.2C12.0002 29.8725 10.9277 28.8 9.6002 28.8C8.2727 28.8 7.2002 29.8725 7.2002 31.2V36C7.2002 39.975 10.4252 43.2 14.4002 43.2H33.6002C37.5752 43.2 40.8002 39.975 40.8002 36V31.2C40.8002 29.8725 39.7277 28.8 38.4002 28.8C37.0727 28.8 36.0002 29.8725 36.0002 31.2V36C36.0002 37.3275 34.9277 38.4 33.6002 38.4H14.4002C13.0727 38.4 12.0002 37.3275 12.0002 36V31.2Z" fill="#C2C2C2"/>
</svg>
